<?xml version="1.0" encoding="UTF-8" standalone="no"?>
<!-- Created with Inkscape (http://www.inkscape.org/) -->

<svg
   xmlns:dc="http://purl.org/dc/elements/1.1/"
   xmlns:cc="http://creativecommons.org/ns#"
   xmlns:rdf="http://www.w3.org/1999/02/22-rdf-syntax-ns#"
   xmlns:svg="http://www.w3.org/2000/svg"
   xmlns="http://www.w3.org/2000/svg"
   xmlns:sodipodi="http://sodipodi.sourceforge.net/DTD/sodipodi-0.dtd"
   xmlns:inkscape="http://www.inkscape.org/namespaces/inkscape"
   width="398.00275"
   height="153.70917"
   id="svg2"
   version="1.1"
   inkscape:version="0.48.3.1 r9886"
   sodipodi:docname="logo-stacked.svg">
  <defs
     id="defs4" />
  <sodipodi:namedview
     id="base"
     pagecolor="#ffffff"
     bordercolor="#666666"
     borderopacity="1.0"
     inkscape:pageopacity="0.0"
     inkscape:pageshadow="2"
     inkscape:zoom="1.1675428"
     inkscape:cx="333.4146"
     inkscape:cy="117.20844"
     inkscape:document-units="px"
     inkscape:current-layer="layer1"
     showgrid="false"
     inkscape:window-width="1598"
     inkscape:window-height="898"
     inkscape:window-x="0"
     inkscape:window-y="0"
     inkscape:window-maximized="0"
     fit-margin-top="0.4"
     fit-margin-right="0.4"
     fit-margin-bottom="0.4"
     fit-margin-left="0.4"
     showguides="true"
     inkscape:guide-bbox="true" />
  <metadata
     id="metadata7">
    <rdf:RDF>
      <cc:Work
         rdf:about="">
        <dc:format>image/svg+xml</dc:format>
        <dc:type
           rdf:resource="http://purl.org/dc/dcmitype/StillImage" />
        <dc:title></dc:title>
      </cc:Work>
    </rdf:RDF>
  </metadata>
  <g
     inkscape:label="Layer 1"
     inkscape:groupmode="layer"
     id="layer1"
     transform="translate(-40.794881,-490.40663)">
    <g
       transform="matrix(0.96994527,0,-0.55999816,1.030986,0,0)"
       style="font-size:121.17151642px;font-style:normal;font-variant:normal;font-weight:normal;font-stretch:normal;line-height:125%;letter-spacing:0px;word-spacing:0px;opacity:0.86000001;fill:#000000;fill-opacity:1;stroke:none;font-family:Serpentine-Bold-Bold;-inkscape-font-specification:Serpentine-Bold-Bold"
       id="text2985" />
    <g
       id="g3068"
       style="fill:#004200;fill-opacity:1">
      <text
         xml:space="preserve"
         style="font-size:110.83386993px;font-style:normal;font-variant:normal;font-weight:normal;font-stretch:normal;line-height:125%;letter-spacing:0px;word-spacing:0px;fill:#004200;fill-opacity:1;stroke:none;font-family:Serpentine-Bold-Bold;-inkscape-font-specification:Serpentine-Bold-Bold"
         x="408.29388"
         y="571.00928"
         id="text3023"
         sodipodi:linespacing="125%"
         transform="matrix(1,0,-0.57735027,1,0,0)"><tspan
           dx="0 -2.4965324 -3.7447991 -3.120666 0.62413317"
           sodipodi:role="line"
           id="tspan3025"
           x="408.29388"
           y="571.00928"> harp</tspan></text>
      <path
         style="fill:#8a916f;fill-opacity:1"
         d="m 73.3431,534.56415 3.384375,0.69181 c 0.509183,0.0862 0.260477,1.15388 0.02532,1.6922 l -5.99626,13.398 c -0.509239,1.08367 -0.8901,1.66026 -1.512915,1.4587 l -2.960963,-0.9662 c -0.611723,-0.28513 -0.692709,-1.15967 -0.377505,-1.84618 l 6.255358,-13.29176 c 0.319107,-0.60076 0.716595,-1.05471 1.18259,-1.13657 z"
         id="path3877"
         inkscape:connector-curvature="0" />
      <path
         style="fill:#004200;fill-opacity:1"
         d="m 160.43591,490.80666 -6.14956,15.86563 c -0.30141,-0.16651 -0.64187,-0.33307 -1.0214,-0.49971 -0.25616,-0.24979 -0.53484,-0.458 -0.83602,-0.62464 -1.02758,-0.41635 -2.17863,-0.74948 -3.45317,-0.9994 -1.15116,-0.33307 -2.78445,-0.49964 -4.89987,-0.49971 l -26.91432,0 c -2.19397,7e-5 -3.81839,0.24992 -4.87327,0.74956 -0.93143,0.41648 -1.78163,1.33261 -2.55059,2.74838 l -2.57852,4.74718 c -0.81434,1.49918 -0.98197,2.45695 -0.50292,2.87331 0.55727,0.41648 1.93289,0.62468 4.12685,0.62463 l 20.5677,0 c 6.11146,5e-5 10.09491,1.24931 11.95037,3.74778 1.9005,2.41529 1.2675,6.53785 -1.899,12.36769 l -10.58551,19.48848 c -3.43812,6.3296 -7.37732,11.20171 -11.81762,14.61636 -4.31686,3.33136 -9.9228,4.99705 -16.81781,4.99705 l -51.948142,0 6.353136,-16.24041 c 1.11354,-1.67774 1.650086,-2.01798 3.650778,-1.95854 2.203449,4.90706 10.199349,0.93239 15.823106,2.14331 0.547833,0.79069 0.874971,0.20228 1.753786,2.53764 l 1.432422,-6.01954 3.639066,5.23434 1.432422,-6.01955 3.639066,5.23434 1.432423,-6.01954 3.639066,5.23434 1.432422,-6.01954 3.639066,5.23434 1.432421,-6.01955 3.639072,5.23434 1.43242,-6.01954 3.63906,5.23434 1.43243,-6.01954 3.63906,5.23433 1.43243,-6.01954 3.63906,5.23434 1.40838,-5.95356 3.61503,5.30032 0.002,-9.66763 c -0.4433,-0.49544 -0.85901,-0.88054 -1.49538,-0.90707 l -39.901129,-9.47267 c -5.491936,-4.01426 -8.061694,1.89489 -12.530611,0.002 l 11.159787,-20.46575 c 3.483223,-6.41281 7.455541,-11.20164 11.916961,-14.36651 4.584914,-3.248 9.384692,-4.87204 14.399352,-4.87212 l 53.47603,0 0,0"
         id="rect3049"
         inkscape:connector-curvature="0" />
    </g>
    <g
       id="g3061"
       transform="matrix(0.797852,1.124119,-0.91253467,0.98284547,311.72612,-691.07602)"
       style="fill:#004200;fill-opacity:1">
      <path
         transform="translate(-0.62413315,-1.8723994)"
         d="m 665.01385,579.26923 c 0,3.61934 -2.93406,6.55339 -6.5534,6.55339 -3.61934,0 -6.5534,-2.93405 -6.5534,-6.55339 0,-3.61935 2.93406,-6.5534 6.5534,-6.5534 3.61934,0 6.5534,2.93405 6.5534,6.5534 z"
         sodipodi:ry="6.5533981"
         sodipodi:rx="6.5533981"
         sodipodi:cy="579.26923"
         sodipodi:cx="658.46045"
         id="path3059"
         sodipodi:type="arc"
         style="fill:#8a916f;fill-opacity:1" />
      <text
         transform="matrix(0.65962439,-0.75159541,0.75159541,0.65962439,0,0)"
         sodipodi:linespacing="125%"
         id="text2989"
         y="880.76111"
         x="-8.4934807"
         style="font-size:40px;font-style:normal;font-variant:normal;font-weight:normal;font-stretch:normal;line-height:125%;letter-spacing:0px;word-spacing:0px;fill:#002a00;fill-opacity:1;stroke:none;font-family:Serpentine-Bold-Bold;-inkscape-font-specification:Serpentine-Bold-Bold"
         xml:space="preserve"><tspan
           y="880.76111"
           x="-8.4934807"
           id="tspan2991"
           sodipodi:role="line"> org</tspan></text>
    </g>
    <path
       style="fill:#002a00;fill-opacity:1"
       d="m 195.58393,502.87881 242.8137,0 -5.36277,12.37491 -244.59096,0 z"
       id="rect3066"
       inkscape:connector-curvature="0"
       sodipodi:nodetypes="ccccc" />
    <g
       style="fill:#004200;fill-opacity:1"
       id="g3848"
       transform="translate(-31.214949,56.921374)">
      <text
         transform="matrix(1,0,-0.57735027,1,0,0)"
         sodipodi:linespacing="125%"
         id="text3850"
         y="571.00928"
         x="408.29388"
         style="font-size:110.83386993px;font-style:normal;font-variant:normal;font-weight:normal;font-stretch:normal;line-height:125%;letter-spacing:0px;word-spacing:0px;fill:#004200;fill-opacity:1;stroke:none;font-family:Serpentine-Bold-Bold;-inkscape-font-specification:Serpentine-Bold-Bold"
         xml:space="preserve"><tspan
           y="571.00928"
           x="408.29388"
           id="tspan3852"
           sodipodi:role="line"
           dx="-2.4965327 -2.4965327 -3.7447989">saw</tspan></text>
    </g>
    <path
       sodipodi:nodetypes="ccccc"
       inkscape:connector-curvature="0"
       id="path3879"
       d="m 46.036948,631.34088 330.242362,0 0,12.1727 -335.084429,0.20221 z"
       style="fill:#002a00;fill-opacity:1" />
  </g>
</svg>
